<svg xmlns="http://www.w3.org/2000/svg" viewBox="0 0 32 32" fill="none">
  <rect width="32" height="32" rx="6" fill="#0a1020"/>
  <path d="M16 6C10.48 6 6 10.48 6 16s4.48 10 10 10 10-4.48 10-10S21.52 6 16 6zm0 2c4.42 0 8 3.58 8 8s-3.58 8-8 8-8-3.58-8-8 3.58-8 8-8z" fill="#172038"/>
  <path d="M22 14.5c0-.28-.22-.5-.5-.5h-3.38l1.44-3.6a.5.5 0 00-.93-.37L17 14h-2.88l1.44-3.6a.5.5 0 00-.93-.37L13 14h-2.5a.5.5 0 000 1H12.62l-1.2 3H9.5a.5.5 0 000 1h1.52l-1.4 3.6a.5.5 0 10.93.37L12 19h2.88l-1.4 3.6a.5.5 0 10.93.37L16 19h5.5a.5.5 0 000-1h-5.12l1.2-3H21.5a.5.5 0 00.5-.5zM15.38 18h-2.88l1.2-3h2.88l-1.2 3z" fill="#00d4aa"/>
</svg>